<svg xmlns="http://www.w3.org/2000/svg" width="240" height="240" fill="none"><rect width="240" height="240" fill="#fff" rx="27"/><path fill="#000" d="M41 191.06h144.83v17.5a8.92 8.92 0 0 1-8.9 8.94H54.35c-7.37 0-13.35-6-13.35-13.4v-13.04Z"/><path fill="#fff" d="M54.17 197.67a6.6 6.6 0 0 1 6.58-6.61h118.5v8.75c0 2.47-2 4.47-4.45 4.47H60.75a6.6 6.6 0 0 1-6.58-6.61Z"/><path fill="#000" d="M41 35.9c0-7.4 5.98-13.4 13.35-13.4H190.1c4.91 0 8.9 4 8.9 8.94v150.68a8.92 8.92 0 0 1-8.9 8.94H41V35.9Z"/><path fill="#fff" d="M70.63 34.65c0-1.23 1-2.23 2.22-2.23h110.76c1.23 0 2.22 1 2.22 2.23v144.26c0 1.23-1 2.23-2.22 2.23H72.85c-1.23 0-2.22-1-2.22-2.23V34.65Z"/><path fill="#000" d="M100.25 57.79c0-1.24 1-2.24 2.22-2.24h54.8c1.23 0 2.23 1 2.23 2.24v31.88c0 1.24-1 2.24-2.22 2.24h-54.8c-1.23 0-2.23-1-2.23-2.24V57.8Z"/><path fill="#fff" d="M60.75 167.92c-6.58 0-13.17 6.61-14.81 9.92v11.57c1.64-3.3 8.23-11.57 14.81-11.57v-9.92Z"/><path fill="url(#a)" fill-rule="evenodd" d="m121.17 125.27-18.7 32.39-4.37-7.4 5.04-8.68-10-.02-2.14-3.7 2.18-3.78 14.25.04 5.12-8.83 8.62-.02Z" clip-rule="evenodd"/><path fill="url(#b)" fill-rule="evenodd" d="M122.6 151.16H160l-4.22 7.48-10.04-.02 4.99 8.68-2.14 3.7h-4.37l-7.08-12.36-10.2-.02-4.34-7.46Z" clip-rule="evenodd"/><path fill="url(#c)" fill-rule="evenodd" d="m144.37 136.97-18.7-32.39 8.6-.08 4.99 8.7 5.03-8.65h4.27l2.18 3.78-7.16 12.31 5.08 8.85-4.29 7.48Z" clip-rule="evenodd"/><path fill="url(#d)" fill-rule="evenodd" d="m114.42 138.61 9.35 16.2 9.35 16.2-8.6.07-4.99-8.7-5.02 8.66h-4.27l-2.19-3.78 7.16-12.32-5.08-8.85 4.3-7.48Z" clip-rule="evenodd"/><path fill="url(#e)" fill-rule="evenodd" d="M136.11 124.35h-37.4l4.23-7.49 10.03.03-4.98-8.68 2.14-3.7h4.36l7.09 12.36 10.2.02 4.33 7.46Z" clip-rule="evenodd"/><path fill="url(#f)" fill-rule="evenodd" d="m137.58 150.3 18.7-32.38 4.37 7.4-5.04 8.67 10 .03 2.14 3.7-2.18 3.78-14.25-.04-5.12 8.82-8.62.03Z" clip-rule="evenodd"/><defs><linearGradient id="a" x1="150.23" x2="136.54" y1="135.95" y2="112.27" gradientUnits="userSpaceOnUse"><stop stop-color="#699AD7"/><stop offset=".24" stop-color="#7EB1DD"/><stop offset="1" stop-color="#7EBAE4"/></linearGradient><linearGradient id="b" x1="150.23" x2="136.54" y1="135.95" y2="112.27" gradientUnits="userSpaceOnUse"><stop stop-color="#699AD7"/><stop offset=".24" stop-color="#7EB1DD"/><stop offset="1" stop-color="#7EBAE4"/></linearGradient><linearGradient id="c" x1="150.23" x2="136.54" y1="135.95" y2="112.27" gradientUnits="userSpaceOnUse"><stop stop-color="#699AD7"/><stop offset=".24" stop-color="#7EB1DD"/><stop offset="1" stop-color="#7EBAE4"/></linearGradient><linearGradient id="d" x1="139.99" x2="153.85" y1="154.05" y2="130.51" gradientUnits="userSpaceOnUse"><stop stop-color="#415E9A"/><stop offset=".23" stop-color="#4A6BAF"/><stop offset="1" stop-color="#5277C3"/></linearGradient><linearGradient id="e" x1="139.99" x2="153.85" y1="154.05" y2="130.51" gradientUnits="userSpaceOnUse"><stop stop-color="#415E9A"/><stop offset=".23" stop-color="#4A6BAF"/><stop offset="1" stop-color="#5277C3"/></linearGradient><linearGradient id="f" x1="139.99" x2="153.85" y1="154.05" y2="130.51" gradientUnits="userSpaceOnUse"><stop stop-color="#415E9A"/><stop offset=".23" stop-color="#4A6BAF"/><stop offset="1" stop-color="#5277C3"/></linearGradient></defs></svg>